# xmcd
#
# Track frame offsets:
#  150
#  17186
#  37286
#  58068
#  87476
#  106763
#  125141
#  153977
#  168990
#
# Disc length: 2573 seconds
#
# Revision: 0
# Processed by: cddbd v1.5.1PL2 Copyright (c) Steve Scherf et al.
# Submitted via: Collectorz.com_Music_Collector 6.11
#
DISCID=780a0b09
DTITLE=M Scott Horn - Fake As The Blue
DYEAR=2005
DGENRE=Blues
TTITLE0=Don't Let The Sunshine Fool You
TTITLE1=And I Don't Know Why
TTITLE2=Blues Run The Game
TTITLE3=She Belongs To Me
TTITLE4=32-20 Blues
TTITLE5=Someday
TTITLE6=Levee Camp Blues
TTITLE7=West Coast Blues
TTITLE8=One I Had
EXTD=
EXTT0=
EXTT1=
EXTT2=
EXTT3=
EXTT4=
EXTT5=
EXTT6=
EXTT7=
EXTT8=
PLAYORDER=
